<svg width="38" height="38" viewBox="0 0 38 38" fill="none" xmlns="http://www.w3.org/2000/svg">
<g id="Group 39571">
<path id="Polygon 4" d="M17.9998 0.577484C18.6187 0.220135 19.3813 0.220136 20.0002 0.577484L34.4543 8.92252C35.0732 9.27986 35.4545 9.94027 35.4545 10.655V27.345C35.4545 28.0597 35.0732 28.7201 34.4543 29.0775L20.0002 37.4225C19.3813 37.7799 18.6187 37.7799 17.9998 37.4225L3.54575 29.0775C2.9268 28.7201 2.54552 28.0597 2.54552 27.345V10.655C2.54552 9.94027 2.9268 9.27986 3.54575 8.92252L17.9998 0.577484Z" fill="#59C282"/>
<g id="psychiatry">
<mask id="mask0_277_3296" style="mask-type:alpha" maskUnits="userSpaceOnUse" x="11" y="11" width="16" height="16">
<rect id="Bounding box" x="11.5" y="11.5" width="15" height="15" fill="#D9D9D9"/>
</mask>
<g mask="url(#mask0_277_3296)">
<path id="psychiatry_2" d="M19.001 24.6255C18.8239 24.6255 18.6755 24.5656 18.5557 24.4458C18.4359 24.326 18.376 24.1776 18.376 24.0005V19.6411C17.7093 19.6411 17.0687 19.5135 16.4541 19.2583C15.8395 19.0031 15.2979 18.6411 14.8291 18.1724C14.3604 17.7036 14.001 17.1619 13.751 16.5474C13.501 15.9328 13.376 15.2922 13.376 14.6255V14.0005C13.376 13.8234 13.4359 13.675 13.5557 13.5552C13.6755 13.4354 13.8239 13.3755 14.001 13.3755H14.626C15.2822 13.3755 15.9176 13.5031 16.5322 13.7583C17.1468 14.0135 17.6885 14.3755 18.1572 14.8442C18.4801 15.1672 18.7484 15.5213 18.9619 15.9067C19.1755 16.2922 19.3395 16.7036 19.4541 17.1411C19.5062 17.0682 19.5635 16.9979 19.626 16.9302C19.6885 16.8625 19.7562 16.7922 19.8291 16.7192C20.2979 16.2505 20.8395 15.8885 21.4541 15.6333C22.0687 15.3781 22.7093 15.2505 23.376 15.2505H24.001C24.1781 15.2505 24.3265 15.3104 24.4463 15.4302C24.5661 15.55 24.626 15.6984 24.626 15.8755V16.5005C24.626 17.1672 24.4984 17.8078 24.2432 18.4224C23.988 19.0369 23.626 19.5786 23.1572 20.0474C22.6885 20.5161 22.1494 20.8755 21.54 21.1255C20.9307 21.3755 20.2926 21.5005 19.626 21.5005V24.0005C19.626 24.1776 19.5661 24.326 19.4463 24.4458C19.3265 24.5656 19.1781 24.6255 19.001 24.6255Z" fill="white"/>
</g>
</g>
</g>
</svg>
