<svg width="24" height="24" viewBox="0 0 24 24" fill="none" xmlns="http://www.w3.org/2000/svg">
<g id="contract_edit">
<mask id="mask0_1952_1162" style="mask-type:alpha" maskUnits="userSpaceOnUse" x="0" y="0" width="24" height="24">
<rect id="Bounding box" width="24" height="24" fill="#D9D9D9"/>
</mask>
<g mask="url(#mask0_1952_1162)">
<path id="contract_edit_2" d="M11 22H5C4.16667 22 3.45833 21.7083 2.875 21.125C2.29167 20.5417 2 19.8333 2 19V17C2 16.7167 2.09583 16.4792 2.2875 16.2875C2.47917 16.0958 2.71667 16 3 16H5V4C5 3.45 5.19583 2.97917 5.5875 2.5875C5.97917 2.19583 6.45 2 7 2H18C18.55 2 19.0208 2.19583 19.4125 2.5875C19.8042 2.97917 20 3.45 20 4V11.025C19.6667 10.9917 19.3292 11.0042 18.9875 11.0625C18.6458 11.1208 18.3167 11.225 18 11.375V4H7V16H13L11.575 17.425C11.3917 17.6083 11.25 17.8208 11.15 18.0625C11.05 18.3042 11 18.5583 11 18.825V22ZM13 21V19.35C13 19.2167 13.025 19.0833 13.075 18.95C13.125 18.8167 13.2 18.7083 13.3 18.625L18.525 13.425C18.675 13.275 18.8417 13.1667 19.025 13.1C19.2083 13.0333 19.3917 13 19.575 13C19.775 13 19.9667 13.0375 20.15 13.1125C20.3333 13.1875 20.5 13.3 20.65 13.45L21.575 14.375C21.7083 14.525 21.8125 14.6917 21.8875 14.875C21.9625 15.0583 22 15.2417 22 15.425C22 15.6083 21.9667 15.7958 21.9 15.9875C21.8333 16.1792 21.725 16.35 21.575 16.5L16.375 21.7C16.2917 21.7833 16.1833 21.8542 16.05 21.9125C15.9167 21.9708 15.7833 22 15.65 22H14C13.7167 22 13.4792 21.9042 13.2875 21.7125C13.0958 21.5208 13 21.2833 13 21ZM19.575 16.4L20.5 15.425L19.575 14.5L18.625 15.45L19.575 16.4ZM9 10H16C16.2833 10 16.5208 10.0958 16.7125 10.2875C16.9042 10.4792 17 10.7167 17 11C17 11.2833 16.9042 11.5208 16.7125 11.7125C16.5208 11.9042 16.2833 12 16 12H9C8.71667 12 8.47917 11.9042 8.2875 11.7125C8.09583 11.5208 8 11.2833 8 11C8 10.7167 8.09583 10.4792 8.2875 10.2875C8.47917 10.0958 8.71667 10 9 10ZM9 7H16C16.2833 7 16.5208 7.09583 16.7125 7.2875C16.9042 7.47917 17 7.71667 17 8C17 8.28333 16.9042 8.52083 16.7125 8.7125C16.5208 8.90417 16.2833 9 16 9H9C8.71667 9 8.47917 8.90417 8.2875 8.7125C8.09583 8.52083 8 8.28333 8 8C8 7.71667 8.09583 7.47917 8.2875 7.2875C8.47917 7.09583 8.71667 7 9 7Z" fill="white" fill-opacity="0.87"/>
</g>
</g>
</svg>
