<svg width="168" height="8" viewBox="0 0 168 8" fill="none" xmlns="http://www.w3.org/2000/svg">
<path id="Vector 257" d="M164 0.190084C161.896 0.190084 160.19 1.89584 160.19 4C160.19 6.10416 161.896 7.80992 164 7.80992C166.104 7.80992 167.81 6.10416 167.81 4C167.81 1.89584 166.104 0.190084 164 0.190084ZM164 3.28564H162.586V4.71436H164V3.28564ZM159.759 3.28564L156.931 3.28564V4.71436H159.759V3.28564ZM154.103 3.28564H151.276V4.71436H154.103V3.28564ZM148.448 3.28564H145.621V4.71436H148.448V3.28564ZM142.793 3.28564L139.966 3.28564V4.71436H142.793V3.28564ZM137.138 3.28564H134.31V4.71436H137.138V3.28564ZM131.483 3.28564H128.655V4.71436H131.483V3.28564ZM125.828 3.28564H123V4.71436H125.828V3.28564ZM120.172 3.28564L117.345 3.28564V4.71436H120.172V3.28564ZM114.517 3.28564L111.69 3.28564V4.71436H114.517V3.28564ZM108.862 3.28564H106.034V4.71436H108.862V3.28564ZM103.207 3.28564H100.379V4.71436H103.207V3.28564ZM97.5517 3.28564H94.7241V4.71436H97.5517V3.28564ZM91.8965 3.28564L89.069 3.28564V4.71436H91.8965V3.28564ZM86.2414 3.28564L83.4138 3.28564V4.71436H86.2414V3.28564ZM80.5862 3.28564H77.7586V4.71436H80.5862V3.28564ZM74.931 3.28564H72.1035V4.71436H74.931V3.28564ZM69.2759 3.28564H66.4483V4.71436H69.2759V3.28564ZM63.6207 3.28564L60.7931 3.28564V4.71436H63.6207V3.28564ZM57.9656 3.28564L55.138 3.28564V4.71436H57.9656V3.28564ZM52.3104 3.28564H49.4828V4.71436H52.3104V3.28564ZM46.6552 3.28564H43.8276V4.71436H46.6552V3.28564ZM41 3.28564H38.1725V4.71436H41V3.28564ZM35.3449 3.28564L32.5173 3.28564V4.71436H35.3449V3.28564ZM29.6897 3.28564L26.8621 3.28564V4.71436H29.6897V3.28564ZM24.0345 3.28564H21.2069V4.71436H24.0345V3.28564ZM18.3793 3.28564H15.5517V4.71436L18.3793 4.71436V3.28564ZM12.7242 3.28564H9.89656V4.71436H12.7242V3.28564ZM7.06897 3.28564L4.24138 3.28564V4.71436H7.06897V3.28564ZM1.41379 3.28564H1.52588e-05V4.71436H1.41379V3.28564Z" fill="white" fill-opacity="0.87"/>
</svg>
